<svg
      xmlns="http://www.w3.org/2000/svg"
      width="765"
      height="990"
      version="1.1"
      viewBox="0 0 765 990"
    >
      <g transform="translate(0 -62.362)">
        <path
          fill="#efefef"
          d="M22.482 84.845v24.375h14.625v4.875H22.482v24.376h24.376v-14.625h4.875v19.5h-29.25V971.382h29.25v19.5h-4.875v-14.625H22.482v24.376h14.625v4.875H22.482v24.376h24.376v-14.625h4.875v14.625h24.376v-24.376H61.484v-4.875h19.5v29.25H684.017v-29.25h19.5v4.875h-14.625v24.376h24.376v-14.625h4.875v14.625h24.376v-24.376h-14.625v-4.875h14.625v-24.376h-24.376v14.625h-4.875v-19.5h29.25V143.346h-29.25v-19.5h4.875v14.625h24.376v-24.376h-14.625v-4.875h14.625V84.845h-24.376V99.47h-4.875V84.845h-24.376v24.375h14.625v4.875h-19.5v-29.25H80.984v29.25h-19.5v-4.875h14.625V84.845H51.733V99.47h-4.875V84.845H22.482zm2.438 2.438h19.5V114.094h-4.876V92.157h-9.75v9.75H37.108v4.875H24.919v-19.5zm29.25 0h19.5v19.5H46.858v-4.876h21.938v-9.75h-9.75V99.47H54.17V87.282zm29.25 0h598.16v29.25H703.517v4.875h-26.812v-29.25H88.298v29.25H61.486v-4.876h21.938v-29.25zm607.91 0h19.5V99.47h-4.876v-7.312h-9.75v9.75h21.939v4.875H691.33v-19.5zm29.25 0h19.5v19.5h-12.188v-4.876h7.312v-9.75h-9.75V114.096h-4.875V87.283zM32.23 94.594h4.874v4.875H32.23v-4.875zm29.25 0h4.874v4.875H61.48v-4.875zm29.25 0H674.264v29.25h29.25v29.25h29.25V961.631h-29.25v29.25h-29.25v29.25H90.73v-29.25H61.48v-29.25H32.23V153.095h29.25v-29.25h29.25v-29.25zm607.91 0h4.874v4.875h-4.875v-4.875zm29.25 0h4.874v4.875h-4.875v-4.875zM46.85 109.22h4.874v4.875H46.85v-4.875zm7.312 0h4.875v41.438h-29.25v813.408h29.25v41.438h-4.875v-36.562h-29.25v-823.16h29.25V109.22zm651.79 0h4.875v36.562h29.25v823.16h-29.25v36.562h-4.875v-41.438h29.25V150.658h-29.25V109.22zm7.312 0h4.875v4.875h-4.875v-4.875zm-688.35 7.313h26.812v4.875H29.788v9.75h9.75V123.844h4.875v12.188h-19.5v-19.5zm688.35 0h26.812v19.5h-19.5v-12.188h4.875v7.312h9.75v-9.75h-21.938v-4.875zm-681.04 7.312H37.1v4.875h-4.875v-4.875zm695.66 0h4.875v4.875h-4.875v-4.875zm-702.97 854.85h19.5v12.188H39.54V983.57h-9.75v9.75H51.727v4.875H24.915v-19.5zm695.66 0h19.5v19.5h-26.812v-4.875h21.939v-9.75h-9.75V990.883h-4.876v-12.188zm-688.35 7.313H37.1v4.875h-4.875v-4.876zm695.66 0h4.875v4.875h-4.875v-4.876zm-666.41 7.312h26.812v29.25h588.408v-29.25h26.812v4.875h-21.938v29.25H83.408v-29.25H61.47v-4.875zm-21.938 7.313h4.875v26.812h-19.5v-19.5H37.1v4.875h-7.312v9.75h9.75v-21.939zm7.313 0h4.875v4.875h-4.875v-4.876zm666.41 0h4.875v4.875h-4.875v-4.876zm7.312 0h4.875v21.938h9.75v-9.75h-7.312v-4.875h12.188v19.5h-19.5v-26.812zm-673.72 7.312h26.812v19.5h-19.5V1015.258h4.875v7.312h9.75v-9.75H46.85v-4.875zm644.47 0h26.812v4.875h-21.938v9.75h9.75v-7.312h4.875V1027.445h-19.5v-19.5zm-659.1 7.313h4.875v4.875h-4.875v-4.876zm29.25 0h4.875v4.875h-4.875v-4.876zm637.16 0h4.875v4.875h-4.875v-4.876zm29.25 0h4.875v4.875h-4.875v-4.876z"
        ></path>
      </g>
    </svg>